<svg width="18" height="18" viewBox="0 0 18 18" fill="none" xmlns="http://www.w3.org/2000/svg">
<g clip-path="url(#clip0_162_670)">
<path d="M16.6458 5.59375H1.35565V17.3643H16.6458V5.59375Z" fill="url(#paint0_linear_162_670)"/>
<path d="M1.3558 7.81039L10.9099 17.3645H16.6458V5.59375H1.3558V7.81039Z" fill="url(#paint1_linear_162_670)"/>
<path d="M14.2831 17.3644H6.80533L2.69483 13.2539C2.51388 13.1366 2.39343 12.933 2.39343 12.7021V9.39377C2.39343 9.03134 2.68853 8.73621 3.05099 8.73621H5.43607C5.66753 8.73621 5.87109 8.85665 5.98841 9.0376L5.97051 9.0518L14.2831 17.3644Z" fill="url(#paint2_linear_162_670)"/>
<path d="M5.43612 12.9742H3.05122C2.90082 12.9742 2.7789 12.8522 2.7789 12.7018V9.39402C2.7789 9.24363 2.90082 9.1217 3.05122 9.1217H5.43612C5.58651 9.1217 5.70844 9.24363 5.70844 9.39402V12.7018C5.7084 12.8522 5.58651 12.9742 5.43612 12.9742Z" fill="#503837"/>
<path d="M5.43611 13.3596H3.05118C2.68847 13.3596 2.3934 13.0645 2.3934 12.7018V9.39398C2.3934 9.03127 2.68847 8.73621 3.05118 8.73621H5.43607C5.79878 8.73621 6.09384 9.03127 6.09384 9.39398V12.7018C6.09388 13.0646 5.79878 13.3596 5.43611 13.3596ZM3.16434 12.5887H5.32294V9.50722H3.16434C3.16434 9.50718 3.16434 12.5887 3.16434 12.5887Z" fill="url(#paint3_linear_162_670)"/>
<path d="M16.6461 10.1008V17.3644H16.4114L12.301 13.2539C12.1195 13.1366 11.999 12.933 11.999 12.7021V9.39377C11.999 9.03134 12.2941 8.73621 12.6571 8.73621H15.0417C15.2731 8.73621 15.4767 8.85665 15.594 9.0376L15.6035 9.04498L15.5971 9.05184L16.6461 10.1008Z" fill="url(#paint4_linear_162_670)"/>
<path d="M15.0418 12.9742H12.6569C12.5065 12.9742 12.3846 12.8522 12.3846 12.7018V9.39402C12.3846 9.24363 12.5065 9.1217 12.6569 9.1217H15.0418C15.1922 9.1217 15.3141 9.24363 15.3141 9.39402V12.7018C15.3141 12.8522 15.1922 12.9742 15.0418 12.9742Z" fill="#503837"/>
<path d="M15.0418 13.3596H12.6569C12.2942 13.3596 11.9991 13.0645 11.9991 12.7018V9.39398C11.9991 9.03127 12.2942 8.73621 12.6569 8.73621H15.0418C15.4045 8.73621 15.6996 9.03127 15.6996 9.39398V12.7018C15.6996 13.0646 15.4045 13.3596 15.0418 13.3596ZM12.7701 12.5887H14.9286V9.50722H12.7701V12.5887Z" fill="url(#paint5_linear_162_670)"/>
<path d="M7.40756 17.3642V9.01145C7.40756 8.64301 7.70621 8.34436 8.07465 8.34436H9.92696C10.2954 8.34436 10.5941 8.64301 10.5941 9.01145V17.3642H7.40756V17.3642Z" fill="url(#paint6_linear_162_670)"/>
<path d="M10.9886 17.3641H10.1995V9.23883C10.1995 8.96384 9.97456 8.73888 9.69957 8.73888H8.30207C8.02595 8.73888 7.80211 8.96272 7.80211 9.23883V17.3642H7.01303V8.71704C7.01303 8.29331 7.35654 7.94983 7.78025 7.94983H10.2214C10.6451 7.94983 10.9886 8.29331 10.9886 8.71704V17.3642H10.9886V17.3641Z" fill="white"/>
<path d="M8.43528 11.8391C8.63397 11.8391 8.79504 11.6781 8.79504 11.4794C8.79504 11.2807 8.63397 11.1196 8.43528 11.1196C8.2366 11.1196 8.07553 11.2807 8.07553 11.4794C8.07553 11.6781 8.2366 11.8391 8.43528 11.8391Z" fill="white"/>
<path d="M17.1884 15.8311V16.7925C17.1884 17.1083 16.9324 17.3643 16.6166 17.3643H1.38499C1.06918 17.3643 0.813171 17.1083 0.813171 16.7925V15.8311C0.813171 15.5153 1.06918 15.2593 1.38499 15.2593H16.6165C16.9323 15.2593 17.1884 15.5153 17.1884 15.8311Z" fill="url(#paint7_linear_162_670)"/>
<path d="M14.9207 0.984811C14.7505 0.764522 14.4878 0.635498 14.2093 0.635498H3.79065C3.51221 0.635498 3.24953 0.764486 3.07927 0.984811L0 4.96963L0.158836 6.09913H17.7883L18 4.96963L14.9207 0.984811Z" fill="url(#paint8_linear_162_670)"/>
<path d="M12.5535 0.984811C12.4513 0.764522 12.2936 0.635498 12.1265 0.635498H5.87348C5.70635 0.635498 5.54871 0.764486 5.44654 0.984811L3.59845 4.9696L3.79416 6.06383H14.1883L14.4016 4.9696L12.5535 0.984811Z" fill="url(#paint9_linear_162_670)"/>
<path d="M10.1842 0.984811C10.1501 0.764522 10.0976 0.635498 10.0419 0.635498H7.95816C7.90247 0.635498 7.84995 0.764486 7.81588 0.984811L7.20001 4.96963H10.8L10.1842 0.984811Z" fill="url(#paint10_linear_162_670)"/>
<path d="M1.8 7.81526C0.805887 7.81526 0 7.00937 0 6.01526V4.9696H3.6V6.01526C3.6 7.00941 2.79411 7.81526 1.8 7.81526Z" fill="url(#paint11_linear_162_670)"/>
<path d="M5.40001 7.81526C4.40589 7.81526 3.60001 7.00937 3.60001 6.01526V4.9696H7.20001V6.01526C7.20001 7.00941 6.39412 7.81526 5.40001 7.81526Z" fill="url(#paint12_linear_162_670)"/>
<path d="M9.00001 7.81526C8.0059 7.81526 7.20001 7.00937 7.20001 6.01526V4.9696H10.8V6.01526C10.8 7.00941 9.99413 7.81526 9.00001 7.81526Z" fill="url(#paint13_linear_162_670)"/>
<path d="M12.6 7.81526C11.6059 7.81526 10.8 7.00937 10.8 6.01526V4.9696H14.4V6.01526C14.4 7.00941 13.5941 7.81526 12.6 7.81526Z" fill="url(#paint14_linear_162_670)"/>
<path d="M16.2 7.81526C15.2059 7.81526 14.4 7.00937 14.4 6.01526V4.9696H18V6.01526C18 7.00941 17.1941 7.81526 16.2 7.81526Z" fill="url(#paint15_linear_162_670)"/>
</g>
<defs>
<linearGradient id="paint0_linear_162_670" x1="9.00051" y1="11.5607" x2="9.00051" y2="19.8931" gradientUnits="userSpaceOnUse">
<stop stop-color="#A7F3CE"/>
<stop offset="1" stop-color="#61DB99"/>
</linearGradient>
<linearGradient id="paint1_linear_162_670" x1="9.83196" y1="11.7972" x2="8.28964" y2="2.34533" gradientUnits="userSpaceOnUse">
<stop stop-color="#61DB99" stop-opacity="0"/>
<stop offset="1" stop-color="#009E74"/>
</linearGradient>
<linearGradient id="paint2_linear_162_670" x1="8.36067" y1="15.1648" x2="1.8307" y2="8.63518" gradientUnits="userSpaceOnUse">
<stop stop-color="#61DB99" stop-opacity="0"/>
<stop offset="1" stop-color="#009E74"/>
</linearGradient>
<linearGradient id="paint3_linear_162_670" x1="5.17818" y1="11.7248" x2="8.87855" y2="14.4039" gradientUnits="userSpaceOnUse">
<stop stop-color="#FFB92D"/>
<stop offset="1" stop-color="#F59500"/>
</linearGradient>
<linearGradient id="paint4_linear_162_670" x1="17.7583" y1="14.9569" x2="12.6093" y2="9.80831" gradientUnits="userSpaceOnUse">
<stop stop-color="#61DB99" stop-opacity="0"/>
<stop offset="1" stop-color="#009E74"/>
</linearGradient>
<linearGradient id="paint5_linear_162_670" x1="14.7839" y1="11.7249" x2="18.484" y2="14.4041" gradientUnits="userSpaceOnUse">
<stop stop-color="#FFB92D"/>
<stop offset="1" stop-color="#F59500"/>
</linearGradient>
<linearGradient id="paint6_linear_162_670" x1="7.40741" y1="12.8544" x2="10.5938" y2="12.8544" gradientUnits="userSpaceOnUse">
<stop stop-color="#FF4C54"/>
<stop offset="1" stop-color="#BE3F45"/>
</linearGradient>
<linearGradient id="paint7_linear_162_670" x1="9.00059" y1="15.5712" x2="9.00059" y2="18.2503" gradientUnits="userSpaceOnUse">
<stop stop-color="#FFB92D"/>
<stop offset="1" stop-color="#F59500"/>
</linearGradient>
<linearGradient id="paint8_linear_162_670" x1="6.34939" y1="2.34691" x2="15.4526" y2="11.4501" gradientUnits="userSpaceOnUse">
<stop stop-color="#FF4C54"/>
<stop offset="1" stop-color="#BE3F45"/>
</linearGradient>
<linearGradient id="paint9_linear_162_670" x1="8.99981" y1="1.6534" x2="8.99981" y2="6.07824" gradientUnits="userSpaceOnUse">
<stop stop-color="white"/>
<stop offset="1" stop-color="#F2F2F2"/>
</linearGradient>
<linearGradient id="paint10_linear_162_670" x1="8.29822" y1="3.31628" x2="0.89085" y2="6.84914" gradientUnits="userSpaceOnUse">
<stop stop-color="#FF4C54"/>
<stop offset="1" stop-color="#BE3F45"/>
</linearGradient>
<linearGradient id="paint11_linear_162_670" x1="1.08309" y1="5.14865" x2="3.55754" y2="7.62307" gradientUnits="userSpaceOnUse">
<stop stop-color="#FF4C54"/>
<stop offset="1" stop-color="#BE3F45"/>
</linearGradient>
<linearGradient id="paint12_linear_162_670" x1="4.68305" y1="5.14866" x2="7.15746" y2="7.62308" gradientUnits="userSpaceOnUse">
<stop stop-color="white"/>
<stop offset="1" stop-color="#F2F2F2"/>
</linearGradient>
<linearGradient id="paint13_linear_162_670" x1="8.28297" y1="5.14866" x2="10.7574" y2="7.62308" gradientUnits="userSpaceOnUse">
<stop stop-color="#FF4C54"/>
<stop offset="1" stop-color="#BE3F45"/>
</linearGradient>
<linearGradient id="paint14_linear_162_670" x1="11.8829" y1="5.14866" x2="14.3573" y2="7.62308" gradientUnits="userSpaceOnUse">
<stop stop-color="white"/>
<stop offset="1" stop-color="#F2F2F2"/>
</linearGradient>
<linearGradient id="paint15_linear_162_670" x1="15.4828" y1="5.14866" x2="17.9572" y2="7.62308" gradientUnits="userSpaceOnUse">
<stop stop-color="#FF4C54"/>
<stop offset="1" stop-color="#BE3F45"/>
</linearGradient>
<clipPath id="clip0_162_670">
<rect width="18" height="18" fill="white"/>
</clipPath>
</defs>
</svg>
